<svg xmlns="http://www.w3.org/2000/svg" width="1024" height="1024" viewBox="-51.5 -51.5 1127.0 1127.0">
  <g fill="none" stroke="black" stroke-width="45" stroke-linecap="round" stroke-linejoin="round">
    <path d="M 787.365,649.003 C 791.587,661.257 791.992,667.12 788.707,725.7" data-line="nan"  stroke-width="45.0"/>
    <path d="M 778.028,910.198 C 772.95,986.584 770.595,999.549 767.029,1006.508 C 764.086,1010.006 756.538,1015.51 748.623,1018.421 L 735.219,1019.838" data-line="nan"  stroke-width="45.0"/>
    <path d="M 286.627,1019.849 C 273.152,1018.483 266.756,1016.357 261.838,1013.247 L 252.759,1004.315" data-line="nan"  stroke-width="45.0"/>
    <path d="M 252.759,1004.315 Q 249.727,985.097 242.887,871.772" data-line="nan"  stroke-width="45.0"/>
    <path d="M 230.997,671.724 C 231.148,663.099 233.186,654.158 237.475,646.393 L 245.183,636.983" data-line="nan"  stroke-width="45.0"/>
    <path d="M 775.879,945.31 C 811.922,945.245 819.63,944.551 828.723,942.52 C 838.76,939.031 848.585,934.108 857.339,928.337 C 866.269,920.444 873.748,911.79 879.804,902.436 C 884.387,893.088 888.215,881.907 891.516,862.904 L 891.888,828.046" data-line="nan"  stroke-width="45.0"/>
    <path d="M 618.361,407.847 C 584.604,421.154 562.178,427.83 535.693,432.41 C 511.401,433.533 491.426,432.79 465.376,428.647 Q 449.055,424.333 407.464,410.26" data-line="nan"  stroke-width="45.0"/>
    <path d="M 618.361,407.847 C 655.325,377.707 675.656,356.296 685.805,343.108 C 694.308,330.141 701.633,317.095 709.83,299.378 C 714.723,286.292 719.745,268.706 723.135,251.288 C 725.039,233.915 725.511,216.476 724.56,199.052 C 722.253,181.702 718.474,164.261 713.08,146.743 C 706.084,129.531 696.992,111.787 688.865,98.694 C 679.387,85.661 668.29,72.703 656.298,60.789 C 643.355,49.811 630.422,40.406 612.618,29.624 C 599.303,22.989 581.808,15.897 564.633,10.663 C 547.203,6.944 529.857,4.759 509.21,4.0 C 491.938,4.89 474.878,7.131 457.475,10.888 C 441.794,15.707 424.838,22.41 408.246,30.795 C 394.498,39.17 379.359,50.184 366.809,60.858 C 352.773,74.97 341.988,87.774 332.434,101.008 C 323.473,115.783 314.848,133.328 308.332,150.269 C 303.183,167.869 299.693,185.154 297.847,200.656 C 297.184,219.683 298.048,239.363 300.406,256.784 C 304.138,273.648 308.795,288.903 315.003,304.572 C 321.667,318.445 331.38,334.981 339.297,346.37 C 351.209,361.113 361.005,371.54 370.089,379.844 L 407.464,410.26" data-line="nan"  stroke-width="45.0"/>
    <path d="M 132.133,851.841 C 133.613,872.869 136.598,885.262 139.494,893.268 C 143.452,901.603 149.075,910.486 156.732,919.693 C 163.114,925.694 170.959,931.473 180.423,936.95 C 189.505,940.849 198.239,943.422 213.5,945.564 L 247.2,945.48" data-line="nan"  stroke-width="45.0"/>
    <path d="M 778.505,637.194 L 245.183,636.983" data-line="0.0"  stroke-width="45.0"/>
    <path d="M 787.365,649.003 L 778.505,637.194" data-line="1.0"  stroke-width="45.0"/>
    <path d="M 647.309,435.632 L 512.219,634.924" data-line="7.0"  stroke-width="45.0"/>
    <path d="M 510.268,634.516 L 378.159,434.825" data-line="8.0"  stroke-width="45.0"/>
    <path d="M 378.159,434.825 L 255.031,500.438" data-line="9.0"  stroke-width="45.0"/>
    <path d="M 788.707,725.7 L 778.028,910.198" data-line="13.0"  stroke-width="45.0"/>
    <path d="M 735.219,1019.838 L 286.627,1019.849" data-line="15.0"  stroke-width="45.0"/>
    <path d="M 242.887,871.772 L 230.997,671.724" data-line="18.0"  stroke-width="45.0"/>
    <circle cx="511.40037235019247" cy="827.4282492173812" r="36.62419772119347" data-line="27.0"  stroke-width="45.0"/>
    <path d="M 526.267,860.859 L 530.488,859.393" data-line="28.0"  stroke-width="45.0"/>
    <path d="M 891.888,828.046 L 891.329,675.806" data-line="29.0"  stroke-width="45.0"/>
    <path d="M 891.9182089513245,675.7598424327994 A 208.87183714424648,208.87183714424648 0 0,0 762.3207188918179,498.5685922403257" data-line="30.0"  stroke-width="45.0"/>
    <path d="M 762.833,497.308 L 647.309,435.632" data-line="31.0"  stroke-width="45.0"/>
    <path d="M 255.50687758193442,501.523902092395 A 207.2610430718213,207.2610430718213 0 0,0 131.87758806074663,677.8443171558387" data-line="32.0"  stroke-width="45.0"/>
    <path d="M 132.286,677.871 L 132.133,851.841" data-line="33.0"  stroke-width="45.0"/>
  </g>
</svg>