<svg xmlns="http://www.w3.org/2000/svg" width="1024" height="1024" viewBox="-51.5 -51.5 1127.0 1127.0">
  <g fill="none" stroke="black" stroke-width="45" stroke-linecap="round" stroke-linejoin="round">
    <path d="M 932.715,688.42 C 950.972,703.73 956.859,709.972 962.957,719.576 C 967.679,731.855 970.043,743.109 970.971,755.065 C 970.928,827.304 970.388,836.518 968.081,846.432 C 964.92,853.837 959.991,860.927 954.616,865.832 C 946.443,870.47 937.473,873.271 931.018,873.97 C 922.242,872.947 913.641,869.74 905.902,864.836 C 900.889,859.9 896.176,852.781 892.512,843.438 C 890.783,834.152 890.305,822.631 890.444,750.572 C 893.385,732.896 898.125,720.452 905.648,709.119 Q 913.621,701.693 930.509,689.954" data-line="nan"  stroke-width="45.0"/>
    <path d="M 1020.0,393.151 Q 983.057,413.22 866.851,470.668" data-line="nan"  stroke-width="45.0"/>
    <path d="M 548.845,623.91 C 530.229,632.09 520.736,634.58 511.126,635.216 C 501.751,634.004 492.534,631.178 483.214,627.169 L 408.405,590.712" data-line="nan"  stroke-width="45.0"/>
    <path d="M 114.492,447.886 L 4.0,393.97" data-line="nan"  stroke-width="45.0"/>
    <path d="M 837.993,693.29 C 836.783,702.792 834.316,711.444 830.778,719.792 L 826.618,726.868" data-line="nan"  stroke-width="45.0"/>
    <path d="M 1020.0,393.151 Q 976.303,371.056 854.867,311.976" data-line="nan"  stroke-width="45.0"/>
    <path d="M 532.725,155.556 C 523.459,151.996 514.393,150.26 504.54,150.415 C 497.467,152.368 483.946,158.232 399.976,199.106" data-line="nan"  stroke-width="45.0"/>
    <path d="M 161.662,315.177 Q 44.765,372.382 4.0,393.97" data-line="nan"  stroke-width="45.0"/>
    <path d="M 826.618,726.868 C 819.274,736.552 810.533,745.712 798.656,755.96 C 784.184,766.569 767.608,777.121 749.574,787.163 C 730.236,796.617 712.832,804.006 674.258,817.367 C 634.884,827.227 594.931,833.954 550.204,838.146" data-line="nan"  stroke-width="45.0"/>
    <path d="M 438.349,834.547 C 412.139,830.654 387.572,825.87 363.513,820.029 C 338.53,812.626 315.976,804.637 293.897,795.531 C 273.238,785.672 254.244,775.273 237.605,764.794 C 221.517,753.051 209.836,742.88 199.167,731.163 C 192.76,721.933 187.296,710.412 183.974,697.391 L 183.133,685.022" data-line="nan"  stroke-width="45.0"/>
    <path d="M 930.694,439.551 L 930.511,686.572" data-line="5.0"  stroke-width="45.0"/>
    <path d="M 866.851,470.668 L 548.845,623.91" data-line="5.0"  stroke-width="45.0"/>
    <path d="M 550.204,838.146 L 438.349,834.547" data-line="7.0"  stroke-width="45.0"/>
    <path d="M 408.405,590.712 L 114.492,447.886" data-line="7.0"  stroke-width="45.0"/>
    <path d="M 838.002,484.596 L 837.993,693.29" data-line="9.0"  stroke-width="45.0"/>
    <path d="M 183.133,685.022 L 182.959,480.933" data-line="9.0"  stroke-width="45.0"/>
    <path d="M 854.867,311.976 L 532.725,155.556" data-line="12.0"  stroke-width="45.0"/>
    <path d="M 399.976,199.106 L 161.662,315.177" data-line="14.0"  stroke-width="45.0"/>
  </g>
</svg>