<svg xmlns="http://www.w3.org/2000/svg" width="1024" height="1024" viewBox="-51.5 -51.5 1127.0 1127.0">
  <g fill="none" stroke="black" stroke-width="45" stroke-linecap="round" stroke-linejoin="round">
    <path d="M 686.194,684.789 C 686.999,901.765 686.239,917.635 684.0,926.244 C 681.801,930.527 678.716,934.459 674.772,937.68 Q 666.123,941.709 650.189,944.104" data-line="nan"  stroke-width="45.0"/>
    <path d="M 76.338,944.311 Q 41.202,944.087 19.719,943.023" data-line="nan"  stroke-width="45.0"/>
    <path d="M 248.267,440.818 C 234.768,429.015 221.569,415.05 210.877,401.442 C 200.62,385.794 191.929,369.601 184.595,352.502 C 178.771,335.355 174.143,317.504 170.966,300.205 C 169.073,282.612 168.843,259.743 170.044,243.926 C 172.919,224.247 176.818,207.897 182.041,191.714 C 189.821,173.977 197.303,160.683 207.273,146.543 C 219.213,133.185 232.486,120.887 246.364,110.343 C 261.761,100.918 275.599,94.145 290.701,88.451 C 308.269,83.604 323.77,80.912 339.42,79.596 C 356.284,79.837 374.111,81.948 389.627,85.356 C 405.211,90.393 421.722,97.59 438.643,107.262 C 454.086,118.229 469.374,131.875 481.474,145.128 C 492.964,160.913 501.914,176.709 508.987,193.109 C 514.987,212.126 519.36,233.128 521.645,254.259 C 522.022,274.264 520.563,295.534 517.225,315.049 C 511.246,337.724 504.412,357.151 496.088,375.667 C 485.766,393.635 475.64,407.81 462.314,423.106 C 448.885,435.777 434.737,446.703 417.372,457.284 C 399.455,465.43 382.0,471.02 366.298,474.145 C 350.714,475.355 331.222,474.886 313.441,472.062 C 297.898,467.778 279.988,460.559 263.127,451.253 L 248.267,440.818" data-line="nan"  stroke-width="45.0"/>
    <path d="M 116.912,569.299 C 86.062,581.749 74.64,587.61 62.601,595.005 C 51.303,604.195 40.458,615.041 30.829,626.749 C 23.22,638.391 17.271,649.862 12.031,662.991 C 8.105,677.095 6.142,688.543 4.133,715.677 L 4.013,770.332" data-line="nan"  stroke-width="45.0"/>
    <path d="M 965.403,683.299 C 980.825,681.964 991.376,678.684 1001.859,672.532 C 1009.7,664.753 1014.719,656.49 1018.334,645.769 Q 1019.649,636.277 1019.9,614.442" data-line="nan"  stroke-width="45.0"/>
    <path d="M 1019.755,387.94 C 1018.771,379.552 1015.868,370.176 1011.406,362.262 C 1004.455,354.384 996.354,348.333 988.751,344.853 Q 980.655,342.715 970.527,342.2" data-line="nan"  stroke-width="45.0"/>
    <path d="M 630.965,341.886 C 617.441,342.63 607.696,345.342 595.975,352.219 C 589.296,359.203 584.554,367.183 580.814,379.023 Q 579.513,390.453 579.253,413.772" data-line="nan"  stroke-width="45.0"/>
    <path d="M 344.408,650.814 L 233.835,520.236" data-line="0.0"  stroke-width="45.0"/>
    <path d="M 344.408,650.814 L 345.483,734.07" data-line="1.0"  stroke-width="45.0"/>
    <path d="M 457.12,519.982 L 344.408,650.814" data-line="2.0"  stroke-width="45.0"/>
    <path d="M 686.7146333628823,684.6699317271181 A 151.4127296843836,151.4127296843836 0 0,0 578.7986386976486,572.3070436864127" data-line="3.0"  stroke-width="45.0"/>
    <path d="M 559.329,783.096 L 560.099,944.243" data-line="5.0"  stroke-width="45.0"/>
    <path d="M 132.016,784.698 L 130.949,944.483" data-line="7.0"  stroke-width="45.0"/>
    <path d="M 19.719,943.023 L 5.942,923.851" data-line="9.0"  stroke-width="45.0"/>
    <path d="M 233.835,520.236 L 116.912,569.299" data-line="10.0"  stroke-width="45.0"/>
    <path d="M 686.194,684.789 L 965.403,683.299" data-line="11.0"  stroke-width="45.0"/>
    <path d="M 828.044,684.015 L 827.83,778.772" data-line="12.0"  stroke-width="45.0"/>
    <path d="M 756.751,778.979 L 914.651,778.022" data-line="13.0"  stroke-width="45.0"/>
    <path d="M 650.189,944.104 L 76.338,944.311" data-line="20.0"  stroke-width="45.0"/>
    <path d="M 1019.9,614.442 L 1019.755,387.94" data-line="25.0"  stroke-width="45.0"/>
    <path d="M 970.527,342.2 L 630.965,341.886" data-line="27.0"  stroke-width="45.0"/>
    <path d="M 801.69,578.163 L 845.834,440.19" data-line="30.0"  stroke-width="45.0"/>
    <path d="M 739.396,451.791 L 687.434,505.871" data-line="31.0"  stroke-width="45.0"/>
    <path d="M 741.098,559.064 L 687.434,505.871" data-line="32.0"  stroke-width="45.0"/>
    <path d="M 893.77,457.913 L 946.54,506.724" data-line="36.0"  stroke-width="45.0"/>
    <path d="M 898.663,554.581 L 946.54,506.724" data-line="37.0"  stroke-width="45.0"/>
    <path d="M 579.218,570.763 L 457.12,519.982" data-line="38.0"  stroke-width="45.0"/>
    <path d="M 4.013,770.332 L 5.942,923.851" data-line="40.0"  stroke-width="45.0"/>
    <path d="M 579.253,413.772 L 579.218,570.763" data-line="44.0"  stroke-width="45.0"/>
  </g>
</svg>