<svg xmlns="http://www.w3.org/2000/svg" width="1024" height="1024" viewBox="-51.5 -51.5 1127.0 1127.0">
  <g fill="none" stroke="black" stroke-width="45" stroke-linecap="round" stroke-linejoin="round">
    <path d="M 657.831,745.153 C 716.102,719.275 725.221,714.571 738.039,703.926 L 785.059,656.588" data-line="nan"  stroke-width="45.0"/>
    <path d="M 929.435,509.247 L 1002.508,435.119" data-line="nan"  stroke-width="45.0"/>
    <path d="M 494.883,483.079 C 456.715,512.857 434.819,526.59 421.591,533.177 C 404.082,539.846 391.0,543.381 377.807,545.499 C 364.738,546.061 351.603,545.026 338.364,542.084 C 320.947,535.807 307.927,529.548 294.99,522.125 C 277.626,510.321 251.656,490.219 242.915,485.322 C 238.488,484.347 229.745,484.716 221.08,486.368 C 186.464,495.158 155.941,505.357 129.813,516.469 C 103.917,530.815 90.838,539.698 78.061,549.66 C 57.548,569.291 46.766,582.327 37.738,595.378 C 30.31,608.192 24.079,621.176 14.693,647.344 Q 8.203,677.58 5.423,712.319" data-line="nan"  stroke-width="45.0"/>
    <path d="M 1002.508,435.119 C 1013.808,422.07 1018.98,410.954 1019.943,404.273 C 1019.775,397.495 1016.344,382.345 1011.827,374.082 C 1006.99,367.539 995.971,356.635 989.231,352.036 C 983.608,349.333 975.758,346.707 970.944,346.018 C 962.836,345.987 955.664,347.265 947.308,350.733 Q 938.793,356.859 872.312,425.145" data-line="nan"  stroke-width="45.0"/>
    <path d="M 742.854,555.476 C 690.25,609.285 664.373,637.021 658.138,651.156 L 621.789,761.165" data-line="nan"  stroke-width="45.0"/>
    <path d="M 5.423,712.319 C 4.09,760.193 4.035,877.73 5.366,890.737 C 8.637,899.513 11.388,903.987 14.92,908.335 C 23.329,915.333 32.07,919.288 40.979,921.136 Q 58.517,922.029 161.485,922.17" data-line="nan"  stroke-width="45.0"/>
    <circle cx="367.4325836309113" cy="227.13229914600552" r="196.58537448552508" data-line="0.0"  stroke-width="45.0"/>
    <path d="M 970.846,467.252 L 900.401,396.121" data-line="2.0"  stroke-width="45.0"/>
    <path d="M 704.9579250402487,594.2990967281993 A 322.5887172918498,322.5887172918498 0 0,0 494.7645005493297,484.19374624948466" data-line="4.0"  stroke-width="45.0"/>
    <path d="M 161.485,922.17 L 416.924,921.136" data-line="6.0"  stroke-width="45.0"/>
    <path d="M 144.385,922.123 L 144.806,746.937" data-line="7.0"  stroke-width="45.0"/>
    <path d="M 657.831,745.153 L 621.789,761.165" data-line="8.0"  stroke-width="45.0"/>
    <path d="M 785.059,656.588 L 929.435,509.247" data-line="11.0"  stroke-width="45.0"/>
    <path d="M 504.345,615.134 L 602.946,614.32" data-line="15.0"  stroke-width="45.0"/>
    <path d="M 872.312,425.145 L 742.854,555.476" data-line="15.0"  stroke-width="45.0"/>
    <path d="M 505.176,993.595 L 504.345,615.134" data-line="16.0"  stroke-width="45.0"/>
    <path d="M 910.924,991.821 L 505.176,993.595" data-line="17.0"  stroke-width="45.0"/>
    <path d="M 910.081,639.538 L 910.924,991.821" data-line="18.0"  stroke-width="45.0"/>
  </g>
</svg>